<mxfile host="app.diagrams.net" agent="Mozilla/5.0 (Windows NT 10.0; Win64; x64) AppleWebKit/537.36 (KHTML, like Gecko) Chrome/128.0.0.0 Safari/537.36" version="24.7.8">
  <diagram name="Page-1" id="LPpVeSTBHXI-9K9pdK6K">
    <mxGraphModel dx="1430" dy="763" grid="1" gridSize="10" guides="1" tooltips="1" connect="1" arrows="1" fold="1" page="1" pageScale="1" pageWidth="1169" pageHeight="827" math="0" shadow="0">
      <root>
        <mxCell id="0" />
        <mxCell id="1" parent="0" />
        <mxCell id="zxM5ny9dlG3e_A8UAUhx-49" value="" style="rounded=0;whiteSpace=wrap;html=1;" vertex="1" parent="1">
          <mxGeometry x="770" y="260" width="120" height="70" as="geometry" />
        </mxCell>
        <mxCell id="zxM5ny9dlG3e_A8UAUhx-13" value="SPI" style="edgeStyle=orthogonalEdgeStyle;rounded=0;orthogonalLoop=1;jettySize=auto;html=1;exitX=0;exitY=0.25;exitDx=0;exitDy=0;entryX=1;entryY=0.5;entryDx=0;entryDy=0;" edge="1" parent="1" source="zxM5ny9dlG3e_A8UAUhx-1" target="zxM5ny9dlG3e_A8UAUhx-9">
          <mxGeometry relative="1" as="geometry" />
        </mxCell>
        <mxCell id="zxM5ny9dlG3e_A8UAUhx-15" value="I2C" style="edgeStyle=orthogonalEdgeStyle;rounded=0;orthogonalLoop=1;jettySize=auto;html=1;exitX=0.5;exitY=1;exitDx=0;exitDy=0;entryX=0.5;entryY=0;entryDx=0;entryDy=0;startArrow=classic;startFill=1;" edge="1" parent="1" source="zxM5ny9dlG3e_A8UAUhx-1" target="zxM5ny9dlG3e_A8UAUhx-12">
          <mxGeometry relative="1" as="geometry" />
        </mxCell>
        <mxCell id="zxM5ny9dlG3e_A8UAUhx-1" value="MCU" style="rounded=0;whiteSpace=wrap;html=1;fillColor=#fff2cc;strokeColor=#d6b656;" vertex="1" parent="1">
          <mxGeometry x="525" y="384" width="120" height="60" as="geometry" />
        </mxCell>
        <mxCell id="zxM5ny9dlG3e_A8UAUhx-3" value="Digital Input" style="edgeStyle=orthogonalEdgeStyle;rounded=0;orthogonalLoop=1;jettySize=auto;html=1;exitX=1;exitY=0.5;exitDx=0;exitDy=0;entryX=0;entryY=0.75;entryDx=0;entryDy=0;" edge="1" parent="1" source="zxM5ny9dlG3e_A8UAUhx-2" target="zxM5ny9dlG3e_A8UAUhx-1">
          <mxGeometry relative="1" as="geometry">
            <mxPoint x="520" y="480" as="targetPoint" />
          </mxGeometry>
        </mxCell>
        <mxCell id="zxM5ny9dlG3e_A8UAUhx-2" value="Button" style="rounded=0;whiteSpace=wrap;html=1;fillColor=#dae8fc;strokeColor=#6c8ebf;" vertex="1" parent="1">
          <mxGeometry x="280" y="480" width="120" height="60" as="geometry" />
        </mxCell>
        <mxCell id="zxM5ny9dlG3e_A8UAUhx-6" value="VBAT" style="edgeStyle=orthogonalEdgeStyle;rounded=0;orthogonalLoop=1;jettySize=auto;html=1;exitX=1;exitY=0.5;exitDx=0;exitDy=0;entryX=0;entryY=0.5;entryDx=0;entryDy=0;" edge="1" parent="1" source="zxM5ny9dlG3e_A8UAUhx-4" target="zxM5ny9dlG3e_A8UAUhx-5">
          <mxGeometry relative="1" as="geometry" />
        </mxCell>
        <mxCell id="zxM5ny9dlG3e_A8UAUhx-4" value="CR2032" style="rounded=0;whiteSpace=wrap;html=1;fillColor=#f8cecc;strokeColor=#b85450;" vertex="1" parent="1">
          <mxGeometry x="280" y="260" width="120" height="60" as="geometry" />
        </mxCell>
        <mxCell id="zxM5ny9dlG3e_A8UAUhx-17" value="Analog Voltage" style="edgeStyle=orthogonalEdgeStyle;rounded=0;orthogonalLoop=1;jettySize=auto;html=1;entryX=0.25;entryY=0;entryDx=0;entryDy=0;exitX=0.25;exitY=1;exitDx=0;exitDy=0;" edge="1" parent="1" source="zxM5ny9dlG3e_A8UAUhx-5" target="zxM5ny9dlG3e_A8UAUhx-1">
          <mxGeometry relative="1" as="geometry">
            <mxPoint x="510" y="340" as="sourcePoint" />
            <mxPoint x="510" y="370" as="targetPoint" />
          </mxGeometry>
        </mxCell>
        <mxCell id="zxM5ny9dlG3e_A8UAUhx-22" style="edgeStyle=orthogonalEdgeStyle;rounded=0;orthogonalLoop=1;jettySize=auto;html=1;exitX=0.5;exitY=0;exitDx=0;exitDy=0;endArrow=block;endFill=1;strokeColor=#FF0000;" edge="1" parent="1" source="zxM5ny9dlG3e_A8UAUhx-5">
          <mxGeometry relative="1" as="geometry">
            <mxPoint x="585" y="240" as="targetPoint" />
          </mxGeometry>
        </mxCell>
        <mxCell id="zxM5ny9dlG3e_A8UAUhx-5" value="Power Management" style="rounded=0;whiteSpace=wrap;html=1;fillColor=#f8cecc;strokeColor=#b85450;" vertex="1" parent="1">
          <mxGeometry x="525" y="260" width="120" height="60" as="geometry" />
        </mxCell>
        <mxCell id="zxM5ny9dlG3e_A8UAUhx-8" value="SPI" style="edgeStyle=orthogonalEdgeStyle;rounded=0;orthogonalLoop=1;jettySize=auto;html=1;exitX=0;exitY=0.5;exitDx=0;exitDy=0;entryX=1;entryY=0.5;entryDx=0;entryDy=0;endArrow=classic;endFill=1;startArrow=classic;startFill=1;" edge="1" parent="1" source="zxM5ny9dlG3e_A8UAUhx-7" target="zxM5ny9dlG3e_A8UAUhx-1">
          <mxGeometry relative="1" as="geometry" />
        </mxCell>
        <mxCell id="zxM5ny9dlG3e_A8UAUhx-41" style="edgeStyle=orthogonalEdgeStyle;rounded=0;orthogonalLoop=1;jettySize=auto;html=1;exitX=1;exitY=0.5;exitDx=0;exitDy=0;endArrow=none;endFill=0;" edge="1" parent="1" source="zxM5ny9dlG3e_A8UAUhx-7">
          <mxGeometry relative="1" as="geometry">
            <mxPoint x="930" y="390" as="targetPoint" />
            <Array as="points">
              <mxPoint x="930" y="414" />
            </Array>
          </mxGeometry>
        </mxCell>
        <mxCell id="zxM5ny9dlG3e_A8UAUhx-7" value="NFC Controller" style="rounded=0;whiteSpace=wrap;html=1;fillColor=#fff2cc;strokeColor=#d6b656;" vertex="1" parent="1">
          <mxGeometry x="770" y="384" width="120" height="60" as="geometry" />
        </mxCell>
        <mxCell id="zxM5ny9dlG3e_A8UAUhx-9" value="Display" style="rounded=0;whiteSpace=wrap;html=1;fillColor=#dae8fc;strokeColor=#6c8ebf;" vertex="1" parent="1">
          <mxGeometry x="280" y="370" width="120" height="60" as="geometry" />
        </mxCell>
        <mxCell id="zxM5ny9dlG3e_A8UAUhx-11" value="Linear actuator" style="rounded=0;whiteSpace=wrap;html=1;fillColor=#dae8fc;strokeColor=#6c8ebf;" vertex="1" parent="1">
          <mxGeometry x="280" y="560" width="120" height="60" as="geometry" />
        </mxCell>
        <mxCell id="zxM5ny9dlG3e_A8UAUhx-14" value="PWM" style="edgeStyle=orthogonalEdgeStyle;rounded=0;orthogonalLoop=1;jettySize=auto;html=1;exitX=0;exitY=0.5;exitDx=0;exitDy=0;entryX=1;entryY=0.5;entryDx=0;entryDy=0;" edge="1" parent="1" source="zxM5ny9dlG3e_A8UAUhx-12" target="zxM5ny9dlG3e_A8UAUhx-11">
          <mxGeometry relative="1" as="geometry" />
        </mxCell>
        <mxCell id="zxM5ny9dlG3e_A8UAUhx-12" value="Haptic controller" style="rounded=0;whiteSpace=wrap;html=1;fillColor=#fff2cc;strokeColor=#d6b656;" vertex="1" parent="1">
          <mxGeometry x="525" y="560" width="120" height="60" as="geometry" />
        </mxCell>
        <mxCell id="zxM5ny9dlG3e_A8UAUhx-18" value="" style="endArrow=none;html=1;rounded=0;" edge="1" parent="1">
          <mxGeometry width="50" height="50" relative="1" as="geometry">
            <mxPoint x="920" y="380" as="sourcePoint" />
            <mxPoint x="940" y="380" as="targetPoint" />
          </mxGeometry>
        </mxCell>
        <mxCell id="zxM5ny9dlG3e_A8UAUhx-20" value="" style="endArrow=none;html=1;rounded=0;" edge="1" parent="1">
          <mxGeometry width="50" height="50" relative="1" as="geometry">
            <mxPoint x="930" y="390" as="sourcePoint" />
            <mxPoint x="940" y="380" as="targetPoint" />
          </mxGeometry>
        </mxCell>
        <mxCell id="zxM5ny9dlG3e_A8UAUhx-26" value="VCC" style="text;html=1;align=center;verticalAlign=middle;whiteSpace=wrap;rounded=0;fontStyle=1;fontColor=#FF0000;" vertex="1" parent="1">
          <mxGeometry x="555" y="220" width="60" height="30" as="geometry" />
        </mxCell>
        <mxCell id="zxM5ny9dlG3e_A8UAUhx-27" style="edgeStyle=orthogonalEdgeStyle;rounded=0;orthogonalLoop=1;jettySize=auto;html=1;exitX=0.75;exitY=0;exitDx=0;exitDy=0;endArrow=block;endFill=1;strokeColor=#FF0000;" edge="1" parent="1">
          <mxGeometry relative="1" as="geometry">
            <mxPoint x="340.20000000000005" y="350" as="targetPoint" />
            <mxPoint x="340" y="370" as="sourcePoint" />
          </mxGeometry>
        </mxCell>
        <mxCell id="zxM5ny9dlG3e_A8UAUhx-28" value="VCC" style="text;html=1;align=center;verticalAlign=middle;whiteSpace=wrap;rounded=0;fontStyle=1;fontColor=#FF0000;" vertex="1" parent="1">
          <mxGeometry x="310" y="330" width="60" height="30" as="geometry" />
        </mxCell>
        <mxCell id="zxM5ny9dlG3e_A8UAUhx-29" style="edgeStyle=orthogonalEdgeStyle;rounded=0;orthogonalLoop=1;jettySize=auto;html=1;exitX=0.75;exitY=0;exitDx=0;exitDy=0;endArrow=block;endFill=1;strokeColor=#FF0000;" edge="1" parent="1">
          <mxGeometry relative="1" as="geometry">
            <mxPoint x="830.2" y="364" as="targetPoint" />
            <mxPoint x="830" y="384" as="sourcePoint" />
          </mxGeometry>
        </mxCell>
        <mxCell id="zxM5ny9dlG3e_A8UAUhx-30" value="VCC" style="text;html=1;align=center;verticalAlign=middle;whiteSpace=wrap;rounded=0;fontStyle=1;fontColor=#FF0000;" vertex="1" parent="1">
          <mxGeometry x="800" y="344" width="60" height="30" as="geometry" />
        </mxCell>
        <mxCell id="zxM5ny9dlG3e_A8UAUhx-34" style="edgeStyle=orthogonalEdgeStyle;rounded=0;orthogonalLoop=1;jettySize=auto;html=1;exitX=0.75;exitY=0;exitDx=0;exitDy=0;endArrow=block;endFill=1;strokeColor=#FF0000;" edge="1" parent="1">
          <mxGeometry relative="1" as="geometry">
            <mxPoint x="620.2" y="540" as="targetPoint" />
            <mxPoint x="620" y="560" as="sourcePoint" />
          </mxGeometry>
        </mxCell>
        <mxCell id="zxM5ny9dlG3e_A8UAUhx-35" value="VCC" style="text;html=1;align=center;verticalAlign=middle;whiteSpace=wrap;rounded=0;fontStyle=1;fontColor=#FF0000;" vertex="1" parent="1">
          <mxGeometry x="590" y="520" width="60" height="30" as="geometry" />
        </mxCell>
        <mxCell id="zxM5ny9dlG3e_A8UAUhx-36" style="edgeStyle=orthogonalEdgeStyle;rounded=0;orthogonalLoop=1;jettySize=auto;html=1;exitX=0.75;exitY=0;exitDx=0;exitDy=0;endArrow=block;endFill=1;strokeColor=#FF0000;fontStyle=1" edge="1" parent="1">
          <mxGeometry relative="1" as="geometry">
            <mxPoint x="620.2" y="364" as="targetPoint" />
            <mxPoint x="620" y="384" as="sourcePoint" />
          </mxGeometry>
        </mxCell>
        <mxCell id="zxM5ny9dlG3e_A8UAUhx-37" value="VCC" style="text;html=1;align=center;verticalAlign=middle;whiteSpace=wrap;rounded=0;fontStyle=1;fontColor=#FF0000;" vertex="1" parent="1">
          <mxGeometry x="590" y="344" width="60" height="30" as="geometry" />
        </mxCell>
        <mxCell id="zxM5ny9dlG3e_A8UAUhx-42" value="" style="endArrow=none;html=1;rounded=0;" edge="1" parent="1">
          <mxGeometry width="50" height="50" relative="1" as="geometry">
            <mxPoint x="930" y="390" as="sourcePoint" />
            <mxPoint x="920" y="380" as="targetPoint" />
          </mxGeometry>
        </mxCell>
        <mxCell id="zxM5ny9dlG3e_A8UAUhx-43" value="" style="rounded=0;whiteSpace=wrap;html=1;fillColor=#f8cecc;strokeColor=#b85450;" vertex="1" parent="1">
          <mxGeometry x="780" y="270" width="20" height="10" as="geometry" />
        </mxCell>
        <mxCell id="zxM5ny9dlG3e_A8UAUhx-44" value="Power" style="text;html=1;align=left;verticalAlign=middle;whiteSpace=wrap;rounded=0;" vertex="1" parent="1">
          <mxGeometry x="810" y="260" width="100" height="30" as="geometry" />
        </mxCell>
        <mxCell id="zxM5ny9dlG3e_A8UAUhx-45" value="" style="rounded=0;whiteSpace=wrap;html=1;fillColor=#dae8fc;strokeColor=#6c8ebf;" vertex="1" parent="1">
          <mxGeometry x="780" y="290" width="20" height="10" as="geometry" />
        </mxCell>
        <mxCell id="zxM5ny9dlG3e_A8UAUhx-46" value="HID" style="text;html=1;align=left;verticalAlign=middle;whiteSpace=wrap;rounded=0;" vertex="1" parent="1">
          <mxGeometry x="810" y="280" width="100" height="30" as="geometry" />
        </mxCell>
        <mxCell id="zxM5ny9dlG3e_A8UAUhx-47" value="" style="rounded=0;whiteSpace=wrap;html=1;fillColor=#fff2cc;strokeColor=#d6b656;" vertex="1" parent="1">
          <mxGeometry x="780" y="310" width="20" height="10" as="geometry" />
        </mxCell>
        <mxCell id="zxM5ny9dlG3e_A8UAUhx-48" value="Controller" style="text;html=1;align=left;verticalAlign=middle;whiteSpace=wrap;rounded=0;" vertex="1" parent="1">
          <mxGeometry x="810" y="300" width="100" height="30" as="geometry" />
        </mxCell>
      </root>
    </mxGraphModel>
  </diagram>
</mxfile>
